REM DIRINDEX 1\3,1\2\4,1\2\5,1\2\6
REM DIRNAME cjc137,folder01,folder02,folder03,folder04,folder05
TITLE ""
FILE "121.mp3" MP3
  TRACK 01 AUDIO
    TITLE "4:cjc137_5001"
    INDEX 01 00:00:00
  TRACK 02 AUDIO
    TITLE "0:"
    INDEX 01 00:01:17
  TRACK 03 AUDIO
    TITLE "6:cjc137_5002"
    INDEX 01 00:01:28
  TRACK 04 AUDIO
    TITLE "0:"
    INDEX 01 00:02:59
  TRACK 05 AUDIO
    TITLE "5:cjc137_5003"
    INDEX 01 00:02:63
  TRACK 06 AUDIO
    TITLE "0:"
    INDEX 01 00:04:05
  TRACK 07 AUDIO
    TITLE "4:cjc137_5004"
    INDEX 01 00:05:16
  TRACK 08 AUDIO
    TITLE "0:"
    INDEX 01 00:06:20
  TRACK 09 AUDIO
    TITLE "6:cjc137_5005"
    INDEX 01 00:06:30
  TRACK 10 AUDIO
    TITLE "0:"
    INDEX 01 00:07:31
  TRACK 11 AUDIO
    TITLE "5:cjc137_5006"
    INDEX 01 00:07:39
  TRACK 12 AUDIO
    TITLE "0:"
    INDEX 01 00:08:44
  TRACK 13 AUDIO
    TITLE "4:cjc137_5007"
    INDEX 01 00:09:53
  TRACK 14 AUDIO
    TITLE "0:"
    INDEX 01 00:11:11
  TRACK 15 AUDIO
    TITLE "6:cjc137_5008"
    INDEX 01 00:11:15
  TRACK 16 AUDIO
    TITLE "0:"
    INDEX 01 00:12:40
  TRACK 17 AUDIO
    TITLE "5:cjc137_5009"
    INDEX 01 00:12:46
  TRACK 18 AUDIO
    TITLE "0:"
    INDEX 01 00:14:02
  TRACK 19 AUDIO
    TITLE "4:cjc137_5010"
    INDEX 01 00:15:09
  TRACK 20 AUDIO
    TITLE "0:"
    INDEX 01 00:16:26
  TRACK 21 AUDIO
    TITLE "6:cjc137_5011"
    INDEX 01 00:16:32
  TRACK 22 AUDIO
    TITLE "0:"
    INDEX 01 00:17:21
  TRACK 23 AUDIO
    TITLE "5:cjc137_5012"
    INDEX 01 00:17:27
  TRACK 24 AUDIO
    TITLE "0:"
    INDEX 01 00:18:44
  TRACK 25 AUDIO
    TITLE "4:cjc137_5013"
    INDEX 01 00:19:52
  TRACK 26 AUDIO
    TITLE "0:"
    INDEX 01 00:20:65
  TRACK 27 AUDIO
    TITLE "6:cjc137_5014"
    INDEX 01 00:20:73
  TRACK 28 AUDIO
    TITLE "0:"
    INDEX 01 00:22:36
  TRACK 29 AUDIO
    TITLE "5:cjc137_5015"
    INDEX 01 00:22:42
  TRACK 30 AUDIO
    TITLE "0:"
    INDEX 01 00:23:57
  TRACK 31 AUDIO
    TITLE "4:cjc137_5016"
    INDEX 01 00:24:65
  TRACK 32 AUDIO
    TITLE "0:"
    INDEX 01 00:26:05
  TRACK 33 AUDIO
    TITLE "6:cjc137_5017"
    INDEX 01 00:26:13
  TRACK 34 AUDIO
    TITLE "0:"
    INDEX 01 00:27:71
  TRACK 35 AUDIO
    TITLE "5:cjc137_5018"
    INDEX 01 00:28:02
  TRACK 36 AUDIO
    TITLE "0:"
    INDEX 01 00:29:19
  TRACK 37 AUDIO
    TITLE "4:cjc137_5019"
    INDEX 01 00:30:28
  TRACK 38 AUDIO
    TITLE "0:"
    INDEX 01 00:31:37
  TRACK 39 AUDIO
    TITLE "6:cjc137_5020"
    INDEX 01 00:31:41
  TRACK 40 AUDIO
    TITLE "0:"
    INDEX 01 00:32:54
  TRACK 41 AUDIO
    TITLE "5:cjc137_5021"
    INDEX 01 00:32:60
  TRACK 42 AUDIO
    TITLE "0:"
    INDEX 01 00:33:68
  TRACK 43 AUDIO
    TITLE "4:cjc137_5022"
    INDEX 01 00:35:00
  TRACK 44 AUDIO
    TITLE "0:"
    INDEX 01 00:36:11
  TRACK 45 AUDIO
    TITLE "6:cjc137_5023"
    INDEX 01 00:36:15
  TRACK 46 AUDIO
    TITLE "0:"
    INDEX 01 00:37:38
  TRACK 47 AUDIO
    TITLE "5:cjc137_5024"
    INDEX 01 00:37:46
  TRACK 48 AUDIO
    TITLE "0:"
    INDEX 01 00:38:53
  TRACK 49 AUDIO
    TITLE "4:cjc137_5025"
    INDEX 01 00:39:62
  TRACK 50 AUDIO
    TITLE "0:"
    INDEX 01 00:41:08
  TRACK 51 AUDIO
    TITLE "6:cjc137_5026"
    INDEX 01 00:41:14
  TRACK 52 AUDIO
    TITLE "0:"
    INDEX 01 00:42:31
  TRACK 53 AUDIO
    TITLE "5:cjc137_5027"
    INDEX 01 00:42:39
  TRACK 54 AUDIO
    TITLE "0:"
    INDEX 01 00:43:58
  TRACK 55 AUDIO
    TITLE "4:cjc137_5028"
    INDEX 01 00:44:67
  TRACK 56 AUDIO
    TITLE "0:"
    INDEX 01 00:46:09
  TRACK 57 AUDIO
    TITLE "6:cjc137_5029"
    INDEX 01 00:46:11
  TRACK 58 AUDIO
    TITLE "0:"
    INDEX 01 00:47:30
  TRACK 59 AUDIO
    TITLE "5:cjc137_5030"
    INDEX 01 00:47:36
  TRACK 60 AUDIO
    TITLE "0:"
    INDEX 01 00:48:51
  TRACK 61 AUDIO
    TITLE "4:cjc137_5031"
    INDEX 01 00:49:57
  TRACK 62 AUDIO
    TITLE "0:"
    INDEX 01 00:51:05
  TRACK 63 AUDIO
    TITLE "6:cjc137_5032"
    INDEX 01 00:51:11
  TRACK 64 AUDIO
    TITLE "0:"
    INDEX 01 00:52:20
  TRACK 65 AUDIO
    TITLE "5:cjc137_5033"
    INDEX 01 00:52:24
  TRACK 66 AUDIO
    TITLE "0:"
    INDEX 01 00:53:43
  TRACK 67 AUDIO
    TITLE "4:cjc137_5034"
    INDEX 01 00:54:52
  TRACK 68 AUDIO
    TITLE "0:"
    INDEX 01 00:55:59
  TRACK 69 AUDIO
    TITLE "6:cjc137_5035"
    INDEX 01 00:55:63
  TRACK 70 AUDIO
    TITLE "0:"
    INDEX 01 00:56:59
  TRACK 71 AUDIO
    TITLE "5:cjc137_5036"
    INDEX 01 00:56:63
  TRACK 72 AUDIO
    TITLE "0:"
    INDEX 01 00:57:68
  TRACK 73 AUDIO
    TITLE "4:cjc137_5037"
    INDEX 01 00:59:02
  TRACK 74 AUDIO
    TITLE "0:"
    INDEX 01 01:00:17
  TRACK 75 AUDIO
    TITLE "6:cjc137_5038"
    INDEX 01 01:00:21
  TRACK 76 AUDIO
    TITLE "0:"
    INDEX 01 01:01:17
  TRACK 77 AUDIO
    TITLE "5:cjc137_5039"
    INDEX 01 01:01:21
  TRACK 78 AUDIO
    TITLE "0:"
    INDEX 01 01:02:38
  TRACK 79 AUDIO
    TITLE "4:cjc137_5040"
    INDEX 01 01:03:43
  TRACK 80 AUDIO
    TITLE "0:"
    INDEX 01 01:04:47
  TRACK 81 AUDIO
    TITLE "6:cjc137_5041"
    INDEX 01 01:04:52
  TRACK 82 AUDIO
    TITLE "0:"
    INDEX 01 01:05:32
  TRACK 83 AUDIO
    TITLE "5:cjc137_5042"
    INDEX 01 01:05:40
  TRACK 84 AUDIO
    TITLE "0:"
    INDEX 01 01:06:43
